<svg xmlns="http://www.w3.org/2000/svg" id="Layer_1" data-name="Layer 1" viewBox="0 0 1350 427"><defs><style>.cls-1{fill:#0b4192;}.cls-2{fill:#fea314;}.cls-3{fill:#e5a33e;}</style></defs><title>Elmasudy Logo Wp</title><path class="cls-1" d="M265.77,110.78,279.62,120V305.39l-14.23,8.46Q265.57,212.32,265.77,110.78Z"></path><path class="cls-1" d="M249.62,171.54l-14.23,6.93q.18,68.07.38,136.15l-15,8.85q-.39-33.47-.77-66.92L147.69,297.7v50.77L132.31,340V305.78l-13.85-7.7v33.47l-15.77-9.62.39-33.08-14.23-8.46-.39,34.23-14.61-8.84V272.7l-14.62-8.08q-.39,16.35-.77,32.7l-14.23-9.24V202.7l16.15,9.61q-.37,16.16-.76,32.31L102.69,270l.39-82.7-42.7-25q-.37,16.74-.76,33.47L44.23,187.7,44.62,135l58.84,34.61,42.69-25.38L103.08,120,73.85,136.16,59.23,127.7,175.77,59.62l-13.46-7.69L30.77,127.7q-.39,84.62-.77,169.23L161.92,372.7q.39-33.65.77-67.31l43.85-26.15v18.84l-29.23,16.54q.19,24.81.38,49.62L250,322.7Q249.81,247.12,249.62,171.54ZM73.85,185.78l15.77,8.84-.39,51.93-15.77-8.47Zm30-50.39,14.61,8.85-14.61,9.61-15-9.23ZM206.92,331.55l-15.38,8.84q-.19-8.65-.38-17.31l15.76-8.84Z"></path><path class="cls-2" d="M236.54,111.16v14.23l13.85-6.92V103.08Z"></path><path class="cls-2" d="M236.54,160l13.85-6.93V137.7l-13.85,8.08Z"></path><path class="cls-2" d="M177.31,144.24v34.61l-44.23,25.39q-.39-8.66-.77-17.31l30-17.31-.39-15.38-43.07,25v49.61q36.54-21.15,73.07-42.31V152.7l15-8.08.39,85-74.62,41.54q-.19-8.27-.38-16.54l59.23-34.23V205l-72.69,41.54v32.69l14.61,8.46,87.31-51.15q-.2-58.28-.38-116.54Z"></path><path class="cls-1" d="M221.16,101.16l13.46-7.31-42.7-25-71.15,41.93q20.58,12.5,41.15,25l43.08-25-13.46-8.08L163.08,120l-15-9.23L191.54,85Z"></path><path class="cls-1" d="M448.35,132.36,426.85,174v20.52H411.72V174l-21.5-41.59h17.16l12,26,11.95-26Z"></path><path class="cls-1" d="M493.11,183.5H469.93l-3.71,11H450.38l22.47-62.11h17.52l22.47,62.11h-16Zm-3.89-11.68-7.7-22.73-7.61,22.73Z"></path><path class="cls-1" d="M572.92,132.36,551.42,174v20.52H536.29V174l-21.5-41.59H532l12,26,11.94-26Z"></path><path class="cls-1" d="M617.69,183.5H594.51l-3.72,11H575l22.47-62.11h17.52l22.48,62.11h-16Zm-3.9-11.68-7.69-22.73-7.61,22.73Z"></path><path class="cls-1" d="M654.49,192.88a19.75,19.75,0,0,1-8.62-6.55,17.83,17.83,0,0,1-3.41-10.44h16.1a7.83,7.83,0,0,0,2.39,5.27,7.69,7.69,0,0,0,5.31,1.81,8.27,8.27,0,0,0,5.31-1.55,5.19,5.19,0,0,0,1.94-4.29,5.07,5.07,0,0,0-1.54-3.8,12.62,12.62,0,0,0-3.81-2.48,61.69,61.69,0,0,0-6.41-2.21,69.52,69.52,0,0,1-9.82-3.72,18.12,18.12,0,0,1-6.55-5.48,15.29,15.29,0,0,1-2.74-9.47q0-8.67,6.28-13.58t16.37-4.91q10.26,0,16.54,4.91t6.73,13.67H672.19a6.42,6.42,0,0,0-2.21-4.73,7.81,7.81,0,0,0-5.22-1.73,6.54,6.54,0,0,0-4.43,1.46,5.27,5.27,0,0,0-1.68,4.2,5.2,5.2,0,0,0,2.83,4.69,46.72,46.72,0,0,0,8.85,3.63,82.59,82.59,0,0,1,9.78,3.89,18.69,18.69,0,0,1,6.5,5.4,14.44,14.44,0,0,1,2.74,9.11,17.89,17.89,0,0,1-2.7,9.65,18.91,18.91,0,0,1-7.83,6.9,26.8,26.8,0,0,1-12.12,2.56A31.86,31.86,0,0,1,654.49,192.88Z"></path><path class="cls-1" d="M737.3,183.5H714.12l-3.71,11H694.57L717,132.36h17.52L757,194.47H741Zm-3.89-11.68-7.7-22.73-7.6,22.73Z"></path><path class="cls-1" d="M819.41,194.47H804.28L779,156.16v38.31H763.85V132.36H779l25.3,38.49V132.36h15.13Z"></path><path class="cls-1" d="M864.27,144.49v12.56h20.26v11.68H864.27v13.62h22.91v12.12h-38V132.36h38v12.13Z"></path><path class="cls-1" d="M912.13,182.8H932v11.67H897V132.36h15.13Z"></path><path class="cls-1" d="M1009.54,132.36v62.11H994.41V157.23l-13.89,37.24H968.31l-14-37.33v37.33H939.2V132.36h17.87l17.43,43,17.26-43Z"></path><path class="cls-1" d="M1059.09,183.5h-23.18l-3.72,11h-15.84l22.48-62.11h17.51l22.48,62.11h-16Zm-3.9-11.68-7.69-22.73-7.61,22.73Z"></path><path class="cls-1" d="M1095.89,192.88a19.75,19.75,0,0,1-8.62-6.55,17.83,17.83,0,0,1-3.41-10.44H1100a7.83,7.83,0,0,0,2.39,5.27,7.69,7.69,0,0,0,5.31,1.81,8.27,8.27,0,0,0,5.31-1.55,5.17,5.17,0,0,0,2-4.29,5.08,5.08,0,0,0-1.55-3.8,12.62,12.62,0,0,0-3.81-2.48,61.69,61.69,0,0,0-6.41-2.21,69.52,69.52,0,0,1-9.82-3.72,18.12,18.12,0,0,1-6.55-5.48A15.29,15.29,0,0,1,1084,150q0-8.67,6.28-13.58t16.37-4.91q10.26,0,16.54,4.91t6.73,13.67h-16.37a6.42,6.42,0,0,0-2.21-4.73,7.81,7.81,0,0,0-5.22-1.73,6.54,6.54,0,0,0-4.43,1.46,5.27,5.27,0,0,0-1.68,4.2,5.2,5.2,0,0,0,2.83,4.69,46.72,46.72,0,0,0,8.85,3.63,82.59,82.59,0,0,1,9.78,3.89,18.69,18.69,0,0,1,6.5,5.4,14.44,14.44,0,0,1,2.74,9.11,17.89,17.89,0,0,1-2.7,9.65,18.91,18.91,0,0,1-7.83,6.9,26.8,26.8,0,0,1-12.12,2.56A31.86,31.86,0,0,1,1095.89,192.88Z"></path><path class="cls-1" d="M1154.91,132.36v37.16q0,5.58,2.74,8.59t8,3q5.31,0,8.14-3t2.83-8.59V132.36h15.13v37.08a26.32,26.32,0,0,1-3.54,14.06,22.59,22.59,0,0,1-9.51,8.67,29.86,29.86,0,0,1-13.32,2.92,29.09,29.09,0,0,1-13.13-2.87,21.44,21.44,0,0,1-9.16-8.67,27.73,27.73,0,0,1-3.36-14.11V132.36Z"></path><path class="cls-1" d="M1242.85,136.26a27.83,27.83,0,0,1,11.37,10.92,34.71,34.71,0,0,1,0,32.43,27.68,27.68,0,0,1-11.41,11,36.17,36.17,0,0,1-17.12,3.89h-23.27V132.36h23.27A36.09,36.09,0,0,1,1242.85,136.26Zm-4.78,40.43q4.79-4.69,4.78-13.27t-4.78-13.36q-4.77-4.78-13.36-4.78h-7.16v36.1h7.16Q1233.29,181.38,1238.07,176.69Z"></path><path class="cls-1" d="M1320,132.36,1298.5,174v20.52h-15.13V174l-21.5-41.59H1279l12,26,11.94-26Z"></path><path class="cls-3" d="M390.75,255.16a23.61,23.61,0,0,1,8.84-9A24.44,24.44,0,0,1,412,242.94a25.23,25.23,0,0,1,14,3.88,22.17,22.17,0,0,1,8.73,11h-7.67a15.4,15.4,0,0,0-5.88-6.83,17.07,17.07,0,0,0-9.19-2.39,18,18,0,0,0-9.23,2.39,16.75,16.75,0,0,0-6.4,6.8,23.84,23.84,0,0,0,0,20.56,16.72,16.72,0,0,0,6.4,6.79,17.89,17.89,0,0,0,9.23,2.4,17.23,17.23,0,0,0,9.19-2.36,15.16,15.16,0,0,0,5.88-6.8h7.67A22,22,0,0,1,426,289.24a25.37,25.37,0,0,1-14,3.84,24.61,24.61,0,0,1-12.43-3.2,23.42,23.42,0,0,1-8.84-8.91,27.32,27.32,0,0,1,0-25.81Z"></path><path class="cls-3" d="M450.67,248.79V265.2h17.89v5.28H450.67v16.9h20v5.28h-26.4V243.51h26.4v5.28Z"></path><path class="cls-3" d="M519,292.66h-6.4L486.8,253.58v39.08h-6.41V243.51h6.41l25.77,39v-39H519Z"></path><path class="cls-3" d="M560.1,243.58v5.21H546.72v43.87h-6.41V248.79H526.86v-5.21Z"></path><path class="cls-3" d="M574.39,248.79V265.2h17.88v5.28H574.39v16.9h20v5.28H568V243.51h26.41v5.28Z"></path><path class="cls-3" d="M629.94,292.66l-11.69-20.07h-7.74v20.07H604.1V243.58h15.84a21,21,0,0,1,9.4,1.9,13.2,13.2,0,0,1,5.74,5.14A14.29,14.29,0,0,1,637,258a14.47,14.47,0,0,1-2.92,8.95,14.32,14.32,0,0,1-8.76,5.14l12.32,20.56Zm-19.43-25.21h9.43c3.48,0,6.08-.86,7.82-2.57a9.2,9.2,0,0,0,2.61-6.87,8.8,8.8,0,0,0-2.57-6.76q-2.58-2.38-7.86-2.39h-9.43Z"></path><path class="cls-3" d="M672.12,243.58v49.08h-6.41V243.58Z"></path><path class="cls-3" d="M721.62,292.66h-6.41l-25.77-39.08v39.08H683V243.51h6.41l25.77,39v-39h6.41Z"></path><path class="cls-3" d="M761.72,246.57a21.06,21.06,0,0,1,9,8.56,28.87,28.87,0,0,1,0,26.15,20.59,20.59,0,0,1-9,8.45,30.91,30.91,0,0,1-13.91,2.93H732.53V243.58h15.28A30.38,30.38,0,0,1,761.72,246.57Zm.6,35.77q5-5,5-14.12t-5-14.29q-5-5.15-14.47-5.14h-8.87v38.59h8.87Q757.32,287.38,762.32,282.34Z"></path><path class="cls-3" d="M792.1,290a23.5,23.5,0,0,1-8.91-8.95,27.16,27.16,0,0,1,0-25.84,23.54,23.54,0,0,1,8.91-8.94,26,26,0,0,1,25,0,23.29,23.29,0,0,1,8.87,8.91A27.52,27.52,0,0,1,826,281,23.36,23.36,0,0,1,817.1,290a26,26,0,0,1-25,0Zm21.72-4.76a16.76,16.76,0,0,0,6.48-6.83,23.63,23.63,0,0,0,0-20.59,17,17,0,0,0-6.44-6.8,19.27,19.27,0,0,0-18.59,0,17,17,0,0,0-6.44,6.8,23.63,23.63,0,0,0,0,20.59,16.8,16.8,0,0,0,6.47,6.83,19.06,19.06,0,0,0,18.52,0Z"></path><path class="cls-3" d="M876.24,292.66h-6.4l-25.77-39.08v39.08h-6.41V243.51h6.41l25.77,39v-39h6.4Z"></path><path class="cls-3" d="M893.56,248.79V265.2h17.89v5.28H893.56v16.9h20v5.28h-26.4V243.51h26.4v5.28Z"></path><path class="cls-3" d="M930.14,291.42a14.51,14.51,0,0,1-6-4.78,12.35,12.35,0,0,1-2.25-7.08h6.83a9,9,0,0,0,2.85,5.81q2.51,2.36,7.29,2.36a10.64,10.64,0,0,0,7.22-2.29,7.44,7.44,0,0,0,2.64-5.88,6.7,6.7,0,0,0-1.55-4.58,10,10,0,0,0-3.87-2.67,59.69,59.69,0,0,0-6.27-2,55.14,55.14,0,0,1-7.78-2.54,12.43,12.43,0,0,1-5-4,11.63,11.63,0,0,1-2.08-7.29,12.65,12.65,0,0,1,2-7.11,13.39,13.39,0,0,1,5.74-4.79,20.32,20.32,0,0,1,8.49-1.69q6.9,0,11.3,3.46a12.73,12.73,0,0,1,5,9.15h-7a7.59,7.59,0,0,0-3-5,10.49,10.49,0,0,0-6.9-2.14,10,10,0,0,0-6.54,2.07,7.09,7.09,0,0,0-2.54,5.81,6.3,6.3,0,0,0,1.51,4.37,9.78,9.78,0,0,0,3.74,2.57,64,64,0,0,0,6.23,2,57.8,57.8,0,0,1,7.81,2.64,13,13,0,0,1,5.07,4,11.67,11.67,0,0,1,2.12,7.36,12.91,12.91,0,0,1-1.91,6.76,14,14,0,0,1-5.63,5.14,18.64,18.64,0,0,1-8.8,2A20.86,20.86,0,0,1,930.14,291.42Z"></path><path class="cls-3" d="M971,243.58v49.08h-6.41V243.58Z"></path><path class="cls-3" d="M1010.94,281.74h-21.4l-3.95,10.92h-6.76l17.75-48.8H1004l17.67,48.8h-6.76Zm-1.83-5.21-8.87-24.78-8.87,24.78Z"></path></svg>